<?xml version="1.0" encoding="UTF-8" standalone="no"?>
<svg
   xmlns:dc="http://purl.org/dc/elements/1.1/"
   xmlns:cc="http://creativecommons.org/ns#"
   xmlns:rdf="http://www.w3.org/1999/02/22-rdf-syntax-ns#"
   xmlns:svg="http://www.w3.org/2000/svg"
   xmlns="http://www.w3.org/2000/svg"
   xmlns:sodipodi="http://sodipodi.sourceforge.net/DTD/sodipodi-0.dtd"
   xmlns:inkscape="http://www.inkscape.org/namespaces/inkscape"
   sodipodi:docname="LogoVitShield text-right.svg"
   height="90"
   width="76"
   inkscape:version="1.0 (4035a4fb49, 2020-05-01)"
   xml:space="preserve"
   viewBox="0 0 76.000002 90.000002"
   y="0px"
   x="0px"
   id="Capa_1"
   version="1.1"><metadata
   id="metadata43"><rdf:RDF><cc:Work
       rdf:about=""><dc:format>image/svg+xml</dc:format><dc:type
         rdf:resource="http://purl.org/dc/dcmitype/StillImage" /><dc:title></dc:title></cc:Work></rdf:RDF></metadata><defs
   id="defs41">
	
	
</defs><sodipodi:namedview
   inkscape:document-rotation="0"
   inkscape:current-layer="Capa_1"
   inkscape:window-maximized="1"
   inkscape:window-y="-9"
   inkscape:window-x="-9"
   inkscape:cy="47.632881"
   inkscape:cx="96.434883"
   inkscape:zoom="5.6568542"
   showgrid="false"
   id="namedview39"
   inkscape:window-height="1001"
   inkscape:window-width="1920"
   inkscape:pageshadow="2"
   inkscape:pageopacity="0"
   guidetolerance="10"
   gridtolerance="10"
   objecttolerance="10"
   borderopacity="1"
   bordercolor="#666666"
   pagecolor="#ffffff" />

<g
   id="g9">
</g>
<g
   id="g11">
</g>
<g
   id="g13">
</g>
<g
   id="g15">
</g>
<g
   id="g17">
</g>
<g
   id="g19">
</g>
<g
   id="g21">
</g>
<g
   id="g23">
</g>
<g
   id="g25">
</g>
<g
   id="g27">
</g>
<g
   id="g29">
</g>
<g
   id="g31">
</g>
<g
   id="g33">
</g>
<g
   id="g35">
</g>
<g
   id="g37">
</g>
<g
   transform="translate(0,14.184694)"
   id="g1133"><g
     id="g1075"
     transform="translate(8.009,0.75132736)"><path
       inkscape:connector-curvature="0"
       id="path3770"
       d="m 8,8.982 0.25,24.875 3,8.375 6.5,9.375 7.625,6 4.375,1.625 8.875,-4.5 7.125,-7 4.5,-8.125 2,-8.5 L 52,9.232 l -10.5,-2 -10.25,-5 -1,-0.875 -2.875,1.875 -9.625,4.5 z"
       style="fill:#f9f9f9;fill-opacity:1;stroke:none;stroke-width:1px;stroke-linecap:butt;stroke-linejoin:miter;stroke-opacity:1" /><path
       sodipodi:nodetypes="sccsssccsccsss"
       style="opacity:1;fill:#fd0006;fill-opacity:1"
       d="m 46.490039,13.48521 c -10.970363,0 -15.875827,-5.6741696 -15.923074,-5.7296666 -0.284983,-0.34198 -0.86695,-0.34198 -1.151933,0 -0.048,0.057 -4.902465,5.7296666 -15.923071,5.7296666 -0.413976,0 -0.749957,0.33598 -0.749957,0.749956 v 14.312916 c 0,7.824293 3.517295,15.26011 9.408951,19.88959 2.375112,1.86664 4.940712,3.21731 7.626306,4.01377 0.06975,0.021 0.141742,0.0315 0.213738,0.0315 0.072,0 0.143241,-0.0105 0.213737,-0.0315 2.685593,-0.79721 5.251194,-2.14713 7.626305,-4.01377 5.891656,-4.63023 9.408955,-12.065297 9.408955,-19.88959 V 14.235166 c 0,-0.413976 -0.335231,-0.749956 -0.749957,-0.749956 z"
       id="path5-1"
       inkscape:connector-curvature="0" /><path
       style="opacity:1;fill:#fd0006;fill-opacity:1"
       d="m 51.991,7.982 c -14.628,0 -21.169,-7.566 -21.232,-7.64 -0.38,-0.456 -1.156,-0.456 -1.536,0 -0.064,0.076 -6.537,7.64 -21.232,7.64 -0.552,0 -1,0.448 -1,1 v 19.085 c 0,10.433 4.69,20.348 12.546,26.521 3.167,2.489 6.588,4.29 10.169,5.352 0.093,0.028 0.189,0.042 0.285,0.042 0.096,0 0.191,-0.014 0.285,-0.042 3.581,-1.063 7.002,-2.863 10.169,-5.352 C 48.301,48.414 52.991,38.5 52.991,28.067 V 8.982 c 0,-0.552 -0.447,-1 -1,-1 z m -1,20.085 c 0,9.824 -4.404,19.151 -11.782,24.949 -2.883,2.266 -5.983,3.92 -9.218,4.921 -3.235,-1 -6.335,-2.655 -9.218,-4.921 C 13.395,47.219 8.991,37.891 8.991,28.067 V 9.971 c 12.242,-0.272 18.865,-5.497 21,-7.545 2.135,2.049 8.758,7.273 21,7.545 z"
       id="path5"
       inkscape:connector-curvature="0" /><path
       style="opacity:1;fill:#f9f9f9;fill-opacity:1;stroke:none;stroke-linecap:round;stroke-linejoin:round;stroke-miterlimit:10;stroke-opacity:1"
       inkscape:connector-curvature="0"
       stroke=""
       stroke-miterlimit="10"
       d="m 39.440908,21.889924 c 0,-1.310355 -0.26999,-2.581076 -0.76292,-3.77501 -0.24523,-0.596966 -0.55238,-1.161731 -0.91899,-1.694296 V 15.64035 h -0.57219 c -0.16348,-0.210548 -0.3344,-0.406234 -0.51275,-0.592013 -0.86696,-0.891734 -1.87759,-1.600168 -3.00217,-2.088146 -1.16421,-0.505316 -2.40273,-0.767883 -3.67593,-0.767883 -1.2732,0 -2.51172,0.255136 -3.6784,0.760452 -1.12458,0.490455 -2.13521,1.208797 -3.00218,2.098054 -0.17835,0.183302 -0.349263,0.378988 -0.512747,0.589536 h -0.757975 v 0.94623 c -0.289813,0.480546 -0.55238,0.990816 -0.772837,1.525857 -0.490454,1.198887 -0.730727,2.467132 -0.730727,3.777487 0,1.310354 0.23532,2.581077 0.728251,3.77501 0.220456,0.535041 0.487977,1.045312 0.77779,1.525857 v 4.505738 h 15.714345 v -4.337298 c 0.36909,-0.530088 0.67376,-1.094853 0.91898,-1.694297 0.49046,-1.193933 0.76045,-2.464656 0.76045,-3.77501 z m -1.78842,-6.143062 v 0.520179 c -0.13128,-0.190732 -0.23284,-0.361648 -0.37899,-0.520179 z m -5.67489,15.521139 c -0.17836,-0.01734 -0.48056,-0.118899 -0.48056,-0.118899 -0.0644,-0.04459 -0.60934,-0.364124 -0.60934,-0.364124 l -0.0991,-0.21798 c -0.11889,-0.20064 -0.0718,-0.953661 -0.0718,-0.953661 0.0545,-0.282382 -0.0372,-1.109714 -0.0372,-1.109714 -0.0545,-0.445867 0,-0.72825 0,-0.72825 0.0544,-0.05449 0.14614,-0.41862 0.14614,-0.41862 0.0991,-0.08174 0.0644,-0.691094 0.0644,-0.691094 0.0718,-0.07184 0.27247,-0.94623 0.27247,-0.94623 0,0.146145 0.6267,1.181549 0.6267,1.181549 -0.0446,0.07184 0.19073,0.691094 0.19073,0.691094 0.0545,0.74559 0.56477,0.980908 0.56477,0.980908 0.0991,0.473115 0.47311,0.83724 0.47311,0.83724 0.16348,0.173392 0.36413,0.445867 0.36413,0.445867 0.0372,0.08174 0.13623,0.30963 0.13623,0.30963 0,0.153576 0.0718,0.381465 0.0718,0.381465 0.0471,0.07184 0.0991,0.111466 0.15109,0.131282 -0.56228,0.255136 -1.15182,0.453299 -1.76364,0.589537 z m 5.17948,-15.508753 c -0.0495,0 -0.10404,0 -0.10404,0 -0.01,-0.04459 -0.45576,0.04954 -0.45576,0.04954 -0.0718,0.10899 -0.31706,0.178347 -0.31706,0.178347 -0.21799,0.0644 -0.34679,0.371556 -0.34679,0.371556 -0.17339,0.01734 -0.47312,0.190732 -0.47312,0.190732 -0.18083,0.09165 -0.50036,0.163485 -0.50036,0.163485 -0.82981,0.05945 -1.47384,0.681186 -1.47384,0.681186 -0.58211,0.05449 -1.04531,0.354216 -1.04531,0.354216 -0.71835,-0.245226 -1.01806,0.08918 -1.01806,0.08918 -0.17092,0.0074 -0.47312,0.198163 -0.47312,0.198163 l -0.12137,-0.06935 c 0.0941,-0.02478 0.20559,-0.205594 0.20559,-0.205594 0.13872,-0.03468 0.16348,-0.351741 0.16348,-0.351741 0.13872,-0.07679 0.0966,-0.302198 0.0966,-0.302198 0.15606,-0.215503 -0.0544,-0.314585 -0.0544,-0.314585 0.14615,-0.322015 -0.052,-0.314583 -0.052,-0.314583 -0.0347,-0.302199 -0.25018,-0.302199 -0.25018,-0.302199 -0.007,-0.378988 -0.26752,-0.401281 -0.26752,-0.401281 -0.0174,-0.01982 -0.0396,-0.02973 -0.0644,-0.02973 h 6.52205 c 0.0149,0.0025 0.0223,0.0025 0.0297,0.01487 z m -7.89185,0.07679 c -0.19816,0.05945 -0.24027,0.307154 -0.24027,0.307154 -0.26752,-0.111468 -0.2923,0.262566 -0.2923,0.262566 -0.1709,0.104035 -0.0347,0.359171 -0.0347,0.359171 -0.0867,0.111467 0.0421,0.274951 0.0421,0.274951 -0.15605,0.170916 0.0174,0.386419 0.0174,0.386419 -0.0421,0.08669 0.11147,0.198163 0.11147,0.198163 -0.0421,0.104035 0.15606,0.292291 0.15606,0.292291 l -0.0595,0.05202 -0.10404,-0.06935 c -0.65393,-0.369087 -1.22118,-0.180832 -1.22118,-0.180832 -0.21549,-0.198162 -1.22118,-0.431004 -1.22118,-0.431004 -0.32697,-0.455776 -1.8231,-0.730728 -1.8231,-0.730728 -0.37898,-0.128806 -0.57715,-0.25018 -0.57715,-0.25018 -0.0941,-0.222935 -0.31706,-0.35174 -0.31706,-0.35174 l -0.12881,-0.185779 c -0.0149,-0.01486 -0.0297,-0.02229 -0.0471,-0.02229 h 5.8805 c -0.0966,0.05202 -0.14119,0.08918 -0.14119,0.08918 z m -6.06627,-0.08918 c 0.0743,0.05202 0.21302,0.09165 0.21302,0.09165 v 0.116422 c -0.0793,-0.06935 -0.27742,-0.156054 -0.408708,-0.208073 h 0.195688 z m -0.376511,-0.01982 c 0.02973,0.09413 0.324491,0.287338 0.324491,0.287338 -0.0594,-0.0074 -0.364124,-0.111468 -0.364124,-0.111468 0.01734,0.161008 0.141191,0.198164 0.141191,0.198164 0.156054,0.04212 0.371563,0.274951 0.371563,0.274951 l -0.19817,-0.05945 c -0.138714,-0.09413 -0.250181,-0.111466 -0.250181,-0.111466 0.0074,0.188256 0.502841,0.34431 0.502841,0.34431 0.32697,0.354216 0.57219,0.309629 0.57219,0.309629 0.0718,0.07184 0.66385,0.344309 0.66385,0.344309 0.73569,0.619261 1.66209,0.683663 1.66209,0.683663 0.19073,0.173393 1.0899,0.500363 1.0899,0.500363 0,0 0.30964,0.0644 -0.0372,0 -0.34678,-0.0644 -0.84466,0.04954 -0.84466,0.04954 -0.25514,0.07184 -0.42606,-0.04954 -0.42606,-0.04954 -0.55485,-0.163486 -1.58282,-0.04459 -1.58282,-0.04459 -0.11891,0.02725 -0.77284,-0.03715 -0.77284,-0.03715 -0.15358,-0.136237 -0.42853,-0.20064 -0.42853,-0.20064 l -0.14615,-0.04459 c -0.118896,-0.09908 -0.282382,-0.05449 -0.282382,-0.05449 -0.21798,-0.0099 -0.299722,0.01734 -0.299722,0.01734 -0.01734,0.173393 0.326969,0.10899 0.326969,0.10899 l 0.136238,0.0644 c -0.208072,0.0099 -0.255136,0.04459 -0.255136,0.04459 l -0.153576,-0.0099 c -0.118898,0 -0.371555,0.09165 -0.371555,0.09165 -0.01734,0.09908 0.242749,0.08174 0.242749,0.08174 0.374033,0.0099 0.374033,0.08174 0.374033,0.08174 l -0.282382,0.01734 c -0.255136,0 -0.282383,0.03715 -0.282383,0.03715 -0.0099,0.136236 0.673755,0.136236 0.673755,0.136236 l -0.282383,0.03715 c -0.153576,-0.0099 -0.20064,0.05449 -0.20064,0.05449 -0.0099,0.118898 0.592013,0.0446 0.592013,0.0446 l 0.245232,0.0644 c 0.13623,0.0644 0.56476,0 0.56476,0 0.21798,-0.03715 0.62669,0.07184 0.62669,0.07184 1.01807,0.272473 1.61751,0.0644 1.61751,0.0644 0.20807,0.118898 0.91899,0.04459 0.91899,0.04459 0.22788,0.136238 0.76292,0.118898 0.76292,0.118898 0.32697,-0.0644 0.49046,0.118898 0.49046,0.118898 0.01,0.208071 0.23532,0.537518 0.23532,0.537518 0.01,0.537517 0.35421,1.290538 0.35421,1.290538 -0.0446,0 -0.0991,0.364125 -0.0991,0.364125 -0.10899,0.21798 -0.0644,0.500362 -0.0644,0.500362 -0.0644,0.0099 -0.14615,0.490454 -0.14615,0.490454 -0.0446,0.09165 -0.12633,0.510271 -0.12633,0.510271 -0.17339,0.153577 -0.5722,1.072559 -0.5722,1.072559 l -0.20063,0.582105 c -0.10899,0.19073 -0.17339,0.84467 -0.17339,0.84467 -0.18083,0.163484 -0.46322,0.701003 -0.46322,0.701003 l -0.53752,0.572196 c -0.4087,0.336878 -0.56475,1.109713 -0.56475,1.109713 -0.0446,0.108991 -0.26257,1.208796 -0.26257,1.208796 0,0.10899 -0.24523,0.537519 -0.24523,0.537519 -0.0718,0.03715 -0.28238,0.190732 -0.28238,0.190732 -0.16101,-0.02973 -0.24276,0.05202 -0.27,0.106512 -1.05522,-0.725781 -1.984112,-1.664579 -2.692545,-2.761907 V 16.626212 c 0.208071,-0.314584 0.438436,-0.614305 0.671277,-0.899165 z m 2.920431,14.696284 c 0.19073,-0.0099 0.14119,-0.326969 0.14119,-0.326969 0,0 -0.0495,-0.180824 0.0396,-0.245228 0.0916,-0.0644 0.13624,-0.354217 0.13624,-0.354217 0.0174,-0.20064 0.17339,-0.463206 0.17339,-0.463206 0.11889,-0.173392 0.42853,-0.708434 0.42853,-0.708434 0.29972,-0.208071 0.50036,-0.864487 0.50036,-0.864487 0.0916,-0.381464 0.37403,-0.72825 0.37403,-0.72825 0.23532,-0.136237 0.52761,-0.572196 0.52761,-0.572196 0.1189,-0.10899 0.28238,-0.391373 0.28238,-0.391373 0.0644,-0.163484 0.21798,-0.537517 0.19073,-0.374033 -0.003,0.0099 -0.003,0.02229 -0.003,0.03715 0.003,0.227887 0.22046,1.000723 0.22046,1.000723 -0.1189,0.146147 -0.16349,0.990818 -0.16349,0.990818 l -0.14614,0.626691 c -0.14615,0.728249 0.20064,1.491177 0.20064,1.491177 -0.0545,0.180825 0.44587,1.089899 0.44587,1.089899 -0.0174,0.09908 -0.01,0.391372 -0.01,0.391372 -0.14615,0.108991 -0.0372,0.272475 -0.0372,0.272475 -0.0149,0.07431 0.11394,0.136237 0.16349,0.156054 -1.24843,-0.10899 -2.42998,-0.470638 -3.49016,-1.035404 0.0149,0.0049 0.0248,0.0074 0.0248,0.0074 z m 4.34473,1.06265 c 0.0223,-0.237794 -0.20064,-0.279904 -0.20064,-0.279904 l -0.13624,-0.272474 c -0.01,-0.173393 -0.0916,-0.317061 -0.0916,-0.317061 -0.12633,-0.146146 -0.16348,-0.500363 -0.16348,-0.500363 0.01,-0.262566 -0.0718,-0.646507 -0.0718,-0.646507 l -0.01,-0.255136 c 0.0718,-0.309629 -0.0272,-0.973477 -0.0272,-0.973477 -0.0991,-0.364124 0,-0.681186 0,-0.681186 0.0916,-0.0644 0.15357,-0.483023 0.15357,-0.483023 0.0818,-0.118897 0.0941,-0.681186 0.0941,-0.681186 0.0198,-0.64403 0.1189,-0.983385 0.18826,-1.144392 -0.0446,0.393849 0.0991,1.471362 0.0991,1.471362 0,0.317061 -0.21799,1.345032 -0.21799,1.345032 -0.22789,0.782745 0.18082,1.345034 0.18082,1.345034 -0.0818,0.217979 0.12138,0.909073 0.12138,0.909073 0.13872,0.255136 0.16844,0.691095 0.16844,0.691095 -0.0991,0.227887 -0.0916,0.364125 -0.0916,0.364125 0.0124,0.04707 0.0347,0.08174 0.0669,0.106513 -0.0174,0.0025 -0.0397,0.0025 -0.0619,0.0025 z m 5.08288,-1.624939 c -0.007,-0.123851 -0.20063,-0.111466 -0.20063,-0.111466 -0.0545,-0.09165 -0.38642,0.04459 -0.38642,0.04459 -0.0545,-0.02725 -0.46073,0 -0.46073,0 -0.33688,-0.200641 -0.57962,-1.228613 -0.57962,-1.228613 -0.14616,-0.718342 -0.63661,-1.382189 -0.63661,-1.382189 -0.23532,-0.262566 -0.23532,-0.391371 -0.23532,-0.391371 -0.0644,-0.527611 -0.19073,-0.663847 -0.19073,-0.663847 -0.19073,-0.262567 -0.20064,-0.554857 -0.20064,-0.554857 0.0446,-0.490455 -0.16349,-0.864488 -0.16349,-0.864488 -0.0545,-0.30963 -0.3443,-0.871918 -0.3443,-0.871918 0,-0.04459 -0.29972,-0.626691 -0.29972,-0.626691 0.0544,-0.27247 -0.0991,-0.691091 -0.0991,-0.691091 l -0.15357,-0.483023 c 0.11889,-0.262566 -0.01,-0.544949 -0.01,-0.544949 0,-0.04459 -0.0446,-0.391372 -0.0446,-0.391372 0.0718,-0.09165 0.17339,-0.626691 0.17339,-0.626691 0.16348,-0.282383 0.20064,-0.72825 0.20064,-0.72825 l 0.0446,-0.153577 c 0.14614,-0.381465 0.53751,-0.428528 0.53751,-0.428528 0.16349,0.09908 0.78275,-0.02725 0.78275,-0.02725 0.19073,0.04459 0.88182,-0.03715 0.88182,-0.03715 0.45578,0.364125 1.61751,-0.03715 1.61751,-0.03715 0.31706,-0.05449 0.85458,-0.05449 0.85458,-0.05449 0.0644,0.03715 0.5177,0 0.5177,0 l 0.19073,-0.05449 c 0.48303,-0.01734 0.53752,-0.126329 0.53752,-0.126329 -0.0272,-0.09908 -0.50035,0 -0.50035,0 l 0.0272,-0.09908 0.36412,-0.0025 c 0.21798,0.01735 0.18083,-0.146147 0.18083,-0.146147 0.0495,0.0025 0.0842,-0.0025 0.0842,-0.01238 v 8.746407 c -0.66385,1.008155 -1.50604,1.870165 -2.48942,2.548874 z m -0.75301,0.47807 c -0.10157,0.05698 -0.20559,0.111467 -0.31211,0.165962 0.0693,-0.126329 0.21798,-0.183302 0.21798,-0.183302 0.0322,0.01239 0.0644,0.01734 0.0941,0.01734 z m 3.23501,-11.89475 c -0.052,-0.04707 -0.15606,-0.05202 -0.15606,-0.05202 0.0545,0 0.0644,-0.06935 0.0644,-0.06935 -0.0916,-0.118898 -0.50036,-0.108989 -0.50036,-0.108989 h -0.1734 c -0.30963,-0.05202 -0.59944,0.208071 -0.59944,0.208071 -0.0644,-0.0099 -0.22788,0.01239 -0.22788,0.01239 -0.19074,0.07184 -0.78275,0.0049 -0.78275,0.0049 -0.54495,-0.09908 -1.44659,0.07926 -1.44659,0.07926 -0.31706,-0.126329 -0.99577,-0.07679 -0.99577,-0.07679 0.25266,-0.03715 1.11714,-0.525132 1.11714,-0.525132 0.63164,-0.03468 1.03045,-0.401281 1.03045,-0.401281 0.66633,-0.522655 1.22118,-0.621737 1.22118,-0.621737 0.14119,0.02973 0.31211,-0.05945 0.31211,-0.05945 0.0669,-0.06688 0.24522,-0.215502 0.24522,-0.215502 0.0595,-0.02229 0.31211,-0.208071 0.31211,-0.208071 0.17835,-0.141192 0.10651,-0.222934 0.10651,-0.222934 -0.0595,-0.0074 -0.42109,0.250181 -0.42109,0.250181 v -0.06438 l 0.13623,-0.111466 c 0.0595,-0.02229 0.21551,-0.146146 0.21551,-0.146146 0.22788,-0.09908 0.20311,-0.173392 0.20311,-0.173392 -0.12385,-0.03961 -0.47063,0.146173 -0.47063,0.146173 l 0.0198,-0.07184 c 0.26751,-0.123852 0.32201,-0.185779 0.33935,-0.203117 0.16596,0.208071 0.31953,0.423573 0.4533,0.644031 l -0.003,1.986586 v 0 z m -7.65653,-6.110857 c 2.81144,0 5.33555,1.258337 7.04966,3.306849 h -14.09932 c 1.71411,-2.048512 4.23822,-3.306849 7.04966,-3.306849 z m -7.847266,3.413361 h 0.567242 c -0.188255,0.21055 -0.383942,0.431007 -0.567242,0.67871 z m -1.533288,6.143063 c 0,-1.870166 0.53504,-3.618958 1.429252,-5.095273 V 26.987674 C 21.150445,25.50888 20.615404,23.76009 20.615404,21.889924 Z m 1.533288,5.464351 c 0.341831,0.497885 0.725772,0.963569 1.146866,1.394575 0.86697,0.891735 1.88751,1.610076 3.01208,2.098052 0.90165,0.391373 1.8553,0.636601 2.82879,0.743113 h -6.987736 z m 15.503796,4.238218 h -6.79948 c 0.16349,-0.02725 0.3245,-0.0545 0.4855,-0.07679 0.25514,0.06688 0.89422,0.03468 0.89422,0.03468 0.0545,0 0.0545,-0.138715 0.0545,-0.138715 0.003,-0.03963 -0.0223,-0.06935 -0.0595,-0.08918 0.49045,-0.121375 0.97347,-0.287337 1.44164,-0.490454 1.12457,-0.487977 2.11539,-1.18898 2.98236,-2.080715 0.37402,-0.38394 0.7109,-0.797606 0.99824,-1.236042 v 4.077207 z m 0.10651,-14.971236 c 0.97349,1.513472 1.53824,3.32419 1.53824,5.268667 0,1.944477 -0.56475,3.755194 -1.53824,5.268666 V 16.621258 Z"
       id="path3023" /><g
       id="g3870"
       style="opacity:1;fill:#f9f9f9"><rect
         style="fill:#f9f9f9;fill-opacity:1;stroke:none"
         id="rect3829-4"
         width="5.7186232"
         height="13.915315"
         x="26.877525"
         y="34.724747" /><rect
         style="fill:#f9f9f9;fill-opacity:1;stroke:none"
         id="rect3829-7-0"
         width="5.7186232"
         height="14.454472"
         x="38.823093"
         y="-36.964073"
         transform="rotate(90)" /></g></g><g
     id="g888"
     transform="translate(4.5892044,2)"><text
       xml:space="preserve"
       style="font-size:7.43085px;line-height:1.25;font-family:'Alien Resurrection';-inkscape-font-specification:'Alien Resurrection';fill:#000000;fill-opacity:1;stroke-width:0.185771"
       x="-4.525362"
       y="-6.6255484"
       id="text12"><tspan
         sodipodi:role="line"
         x="-4.525362"
         y="-6.6255484"
         style="fill:#000000;fill-opacity:1;stroke-width:0.185771"
         id="tspan16">V truv an</tspan></text><path
       sodipodi:nodetypes="szszs"
       id="path40-3"
       d="m 10.958113,-14.434387 c -0.53826,-0.0078 -0.856344,4.393719 -0.856344,5.5954401 0,1.201722 0.376411,5.632731 0.856344,5.595441 0.493158,-0.03834 0.829095,-3.71785 0.836886,-5.595441 0.0078,-1.8775981 -0.378451,-5.5887841 -0.836886,-5.5954401 z"
       style="fill:#000000;fill-opacity:1;stroke:none;stroke-width:0.0770672px;stroke-linecap:butt;stroke-linejoin:miter;stroke-opacity:1" /><path
       style="fill:#000000;fill-opacity:1;stroke:none;stroke-width:0.0770672px;stroke-linecap:butt;stroke-linejoin:miter;stroke-opacity:1"
       d="m 51.098043,-14.434387 c -0.53826,-0.0078 -0.85634,4.393719 -0.85634,5.5954401 0,1.201722 0.3764,5.632731 0.85634,5.595441 0.49316,-0.03834 0.8291,-3.71785 0.83689,-5.595441 0.008,-1.8775981 -0.37845,-5.5887841 -0.83689,-5.5954401 z"
       id="path40-3-0"
       sodipodi:nodetypes="szszs" /><path
       id="path40"
       style="font-size:10.5833px;line-height:1.25;font-family:'Alien Resurrection';-inkscape-font-specification:'Alien Resurrection';fill:#000000;fill-opacity:1;stroke-width:0.185771"
       d="m -4.2350963,-10.979555 h 2.394705 l 4.52454,3.4723211 4.466486,-3.4723211 h 2.699484 l -5.925078,4.3104681 h -2.31851 z" /><path
       id="path42"
       style="font-size:10.5833px;line-height:1.25;font-family:'Alien Resurrection';-inkscape-font-specification:'Alien Resurrection';fill:#000000;fill-opacity:1;stroke-width:0.185771"
       d="m 17.440606,-10.282913 v 3.5376311 H 15.706259 V -10.282913 H 12.29562 v -0.769209 h 8.570139 v 0.769209 z" /><path
       id="path44"
       style="font-size:10.5833px;line-height:1.25;font-family:'Alien Resurrection';-inkscape-font-specification:'Alien Resurrection';fill:#000000;fill-opacity:1;stroke-width:0.185771"
       d="m 21.45355,-6.7452819 v -2.362049 h 5.5949 q 0.449914,0 0.61319,-0.07619 0.166904,-0.07257 0.166904,-0.26487 v -0.518852 q 0,-0.1886741 -0.166904,-0.2648701 -0.156019,-0.07257 -0.61319,-0.07257 h -5.5949 v -0.747437 h 6.36048 q 0.885315,0 1.284432,0.195931 0.395489,0.203187 0.395489,0.638588 v 1.0123061 q 0,0.435401 -0.395489,0.63496 -0.395489,0.199559 -1.284432,0.199559 h -0.972395 l 3.432409,1.625496 H 27.79226 l -2.997009,-1.625497 h -1.64001 v 1.625497 z" /><path
       id="path46"
       style="font-size:10.5833px;line-height:1.25;font-family:'Alien Resurrection';-inkscape-font-specification:'Alien Resurrection';fill:#000000;fill-opacity:1;stroke-width:0.185771"
       d="m 32.592554,-11.052122 v 3.4977201 h 4.927284 v -3.4977201 h 1.723465 v 3.2909051 q 0,0.591419 -0.37735,0.801863 -0.37735,0.214072 -1.46585,0.214072 h -4.695071 q -1.088502,0 -1.46222,-0.214072 -0.384605,-0.210444 -0.384605,-0.801863 v -3.2909051 z" /><path
       id="path48"
       style="font-size:10.5833px;line-height:1.25;font-family:'Alien Resurrection';-inkscape-font-specification:'Alien Resurrection';fill:#000000;fill-opacity:1;stroke-width:0.185771"
       d="m 39.827463,-11.052122 h 1.68355 l 3.18205,3.4723221 3.14214,-3.4723221 h 1.90125 l -4.16896,4.3068401 h -1.62912 z" /><path
       id="path50"
       style="font-size:10.5833px;line-height:1.25;font-family:'Alien Resurrection';-inkscape-font-specification:'Alien Resurrection';fill:#000000;fill-opacity:1;stroke-width:0.185771"
       d="m 52.178333,-6.7452819 4.11454,-4.3068401 h 1.62912 l 4.16533,4.3068401 h -1.89761 l -3.14215,-3.4723211 -3.18205,3.4723211 z" /><path
       id="path52"
       style="font-size:10.5833px;line-height:1.25;font-family:'Alien Resurrection';-inkscape-font-specification:'Alien Resurrection';fill:#000000;fill-opacity:1;stroke-width:0.185771"
       d="m 64.402203,-6.7452819 h -1.73071 v -3.2872761 q 0,-0.59142 0.3846,-0.805492 0.38098,-0.214072 1.4586,-0.214072 h 4.69869 q 1.07762,0 1.46223,0.214072 0.38097,0.214073 0.38097,0.805492 v 3.2872761 h -1.72346 v -3.4940921 h -4.93092 z" /></g><g
     id="g41"
     transform="matrix(1.4032532,0,0,1.4032532,-8.7809529,56.999527)"
     style="fill:#fd0006;fill-opacity:1"><path
       id="path12"
       style="font-size:10.5833px;line-height:1.25;font-family:'Alien Resurrection';-inkscape-font-specification:'Alien Resurrection';fill:#fd0006;fill-opacity:1;stroke-width:0.13584"
       d="m 17.735885,6.5044545 h 4.507634 v 0.5518488 h -4.749067 v 0.6765406 h 3.388022 q 0.795933,0 1.079816,0.1591879 0.281229,0.1591878 0.281229,0.5863345 v 0.4324605 q 0,0.429801 -0.281229,0.5863345 -0.283883,0.1591879 -1.079816,0.1591879 H 16.388105 V 9.0620516 H 21.12656 V 8.3457115 h -3.390675 q -0.790627,0 -1.069203,-0.1591827 Q 16.388105,8.0273409 16.388105,7.6001891 V 7.2526312 q 0,-0.429801 0.278577,-0.5889889 0.283883,-0.1591878 1.069203,-0.1591878 z" /><path
       id="path14"
       style="font-size:10.5833px;line-height:1.25;font-family:'Alien Resurrection';-inkscape-font-specification:'Alien Resurrection';fill:#fd0006;fill-opacity:1;stroke-width:0.13584"
       d="M 22.67067,9.6006339 V 6.4513936 h 1.268187 v 1.2204316 h 3.947828 V 6.4513936 h 1.276146 V 9.6006339 H 27.886685 V 8.2448932 h -3.947828 v 1.3557407 z" /><path
       id="path16"
       style="font-size:10.5833px;line-height:1.25;font-family:'Alien Resurrection';-inkscape-font-specification:'Alien Resurrection';fill:#fd0006;fill-opacity:1;stroke-width:0.13584"
       d="m 32.306766,6.4513936 h 5.693574 v 0.5359279 h -5.693574 z m 5.743986,1.8041118 h -5.743986 q 0,-0.1459214 0,-0.2944919 0,-0.1485757 0,-0.2971513 h 5.743986 z m -5.743986,0.7534853 h 5.743986 v 0.5916432 h -5.743986 z" /><path
       id="path18"
       style="font-size:10.5833px;line-height:1.25;font-family:'Alien Resurrection';-inkscape-font-specification:'Alien Resurrection';fill:#fd0006;fill-opacity:1;stroke-width:0.13584"
       d="m 39.73813,6.4513936 v 2.5575971 h 3.518022 v 0.5916432 h -3.435774 q -0.79328,0 -1.066553,-0.1565335 -0.28123,-0.1538792 -0.28123,-0.5863345 V 6.4513936 Z" /><path
       id="path20"
       style="font-size:10.5833px;line-height:1.25;font-family:'Alien Resurrection';-inkscape-font-specification:'Alien Resurrection';fill:#fd0006;fill-opacity:1;stroke-width:0.13584"
       d="M 43.683304,9.6006339 V 9.0089907 h 2.899846 q 1.30268,0 1.851875,-0.2361274 0.54654,-0.2334731 0.54654,-0.7773589 0,-0.4802128 -0.453685,-0.732261 -0.458983,-0.249394 -1.337166,-0.249394 h -3.50741 V 6.4513936 h 3.499453 q 1.496353,0 2.300245,0.4059223 0.803892,0.4059275 0.803892,1.1488007 0,0.4457218 -0.313067,0.7959289 -0.318371,0.3528666 -0.88614,0.5545031 -0.355516,0.1300005 -0.880832,0.1883701 -0.525316,0.055715 -1.350432,0.055715 z" /><path
       sodipodi:nodetypes="szszs"
       id="path40-4"
       d="m 30.769697,3.9782164 c -0.393587,-0.0057 -0.626175,3.2127697 -0.626175,4.0914911 0,0.8787214 0.275239,4.1187585 0.626175,4.0914915 0.360606,-0.02803 0.606249,-2.7185618 0.611947,-4.0914915 0.0057,-1.3729349 -0.276731,-4.086624 -0.611947,-4.0914911 z"
       style="fill:#fd0006;fill-opacity:1;stroke:none;stroke-width:0.0563529px;stroke-linecap:butt;stroke-linejoin:miter;stroke-opacity:1" /></g></g></svg>
