<?xml version="1.0" encoding="utf-8"?>
<!-- Svg Vector Icons : http://www.onlinewebfonts.com/icon -->
<!DOCTYPE svg PUBLIC "-//W3C//DTD SVG 1.1//EN" "http://www.w3.org/Graphics/SVG/1.1/DTD/svg11.dtd">
<svg version="1.1" xmlns="http://www.w3.org/2000/svg" xmlns:xlink="http://www.w3.org/1999/xlink" x="0px" y="0px" viewBox="0 0 1000 1000" enable-background="new 0 0 1000 1000" xml:space="preserve">
<metadata> Svg Vector Icons : http://www.onlinewebfonts.com/icon </metadata>
<g><path d="M874.7,129.7C800.5,40.5,591-22.5,414.2,27.9C221.4,82.9,128,206.1,121.3,426.4L61.7,548c-3.3,6.8-3.5,14.6-0.6,21.6c2.9,7,8.7,12.3,15.9,14.7l41.4,13.3c-0.4,17.1-0.8,32.4-1,47.6h236.4h120.5c67.3,0,194.5,31.6,194.5,149.4l9,95.3c0.7-0.4,1.5-0.7,2.3-1.2c68-39.4,144.1-84.9,188.9-151.9L844.4,624C955,516.1,977.7,253.3,874.7,129.7z"/><path d="M474.1,718.6h-103H118.4c6.8,103.8,44.4,135.1,200,135.1c29,0,60.1-5.4,83-11.2l0.2,0.8L437.3,990c58.7-17.6,116.5-38.5,171.9-64.4l-11.9-126.8C597.2,719.6,479.2,718.6,474.1,718.6z"/></g>
</svg>