<?xml version="1.0" encoding="UTF-8" standalone="no"?>
<svg
   xmlns:dc="http://purl.org/dc/elements/1.1/"
   xmlns:cc="http://creativecommons.org/ns#"
   xmlns:rdf="http://www.w3.org/1999/02/22-rdf-syntax-ns#"
   xmlns:svg="http://www.w3.org/2000/svg"
   xmlns="http://www.w3.org/2000/svg"
   xmlns:sodipodi="http://sodipodi.sourceforge.net/DTD/sodipodi-0.dtd"
   xmlns:inkscape="http://www.inkscape.org/namespaces/inkscape"
   inkscape:version="1.0 (4035a4fb49, 2020-05-01)"
   sodipodi:docname="implant.svg"
   id="svg10"
   xml:space="preserve"
   enable-background="new 0 0 1000 1000"
   viewBox="0 0 1000 1000"
   y="0px"
   x="0px"
   version="1.1"><defs
   id="defs14" /><sodipodi:namedview
   inkscape:current-layer="svg10"
   inkscape:window-maximized="1"
   inkscape:window-y="-9"
   inkscape:window-x="-9"
   inkscape:cy="591.3266"
   inkscape:cx="468.06064"
   inkscape:zoom="0.58689863"
   showgrid="false"
   id="namedview12"
   inkscape:window-height="1001"
   inkscape:window-width="1920"
   inkscape:pageshadow="2"
   inkscape:pageopacity="0"
   guidetolerance="10"
   gridtolerance="10"
   objecttolerance="10"
   borderopacity="1"
   bordercolor="#666666"
   pagecolor="#ffffff" />
<metadata
   id="metadata2"> Svg Vector Icons : http://www.onlinewebfonts.com/icon <rdf:RDF><cc:Work
     rdf:about=""><dc:format>image/svg+xml</dc:format><dc:type
       rdf:resource="http://purl.org/dc/dcmitype/StillImage" /></cc:Work></rdf:RDF></metadata>
<g
   id="g8"><g
     id="g6"><path
       sodipodi:nodetypes="cccsccccccccccccccccccccccc"
       id="path4"
       d="M 911.5,879.8 C 831.98682,929.75986 593.1195,1013.7225 544,978.9 527.1,964 331.5,830.9 84.8,818.4 58.4,817.1 71.4,717.1 146.7,717.1 c 51.7,0 202.7,37.5 220.9,19.3 21.96532,-180.62539 -75.71885,-336.01778 -156.3,-535.9 -11.2,-27.8 2.3,-59.3 30,-70.6 27.8,-11.2 59.5,2.2 70.6,30 0,0 93,230.4 103.1,255.4 10,24.9 22.4,34.4 35.8,29.2 12,-4.6 14.5,-12.6 7.2,-36.8 L 351.8,94.7 c -9.7,-28.3 5.5,-59.1 33.9,-68.7 28.4,-9.7 59.2,5.5 68.8,33.9 l 101,297.6 c 8.9,26.2 18.4,39.9 33.3,33.5 9,-3.8 8.4,-17.6 6,-29.5 L 523.8,77.4 C 516.5,48.3 534.2,18.9 563.3,11.6 592.4,4.4 621.7,22 629,51.1 l 65.4,261.8 c 9.6,38.5 18.3,52.3 33.5,48.5 15.5,-3.8 14.8,-16.6 12.7,-27.1 -4.9,-24.7 -45.3,-224.7 -45.3,-224.7 -5.3,-26.7 11.9,-52.7 38.6,-58 26.6,-5.3 52.6,11.9 57.9,38.6 33.15662,262.76189 173.2362,590.62999 119.7,789.6 z" /></g></g>
</svg>
