<?xml version="1.0" encoding="utf-8"?>
<!-- Svg Vector Icons : http://www.onlinewebfonts.com/icon -->
<!DOCTYPE svg PUBLIC "-//W3C//DTD SVG 1.1//EN" "http://www.w3.org/Graphics/SVG/1.1/DTD/svg11.dtd">
<svg version="1.1" xmlns="http://www.w3.org/2000/svg" xmlns:xlink="http://www.w3.org/1999/xlink" x="0px" y="0px" viewBox="0 0 1000 1000" enable-background="new 0 0 1000 1000" xml:space="preserve">
<metadata> Svg Vector Icons : http://www.onlinewebfonts.com/icon </metadata>
<g><g transform="translate(0.000000,512.000000) scale(0.100000,-0.100000)"><path d="M4680,4995.5c-122.6-61.3-122.6-63.2-122.6-869.9c0-402.4,7.7-730,17.2-730c21.1,0,2866.3-400.4,2948.7-413.8l61.3-11.5v950.3v950.3l-65.2,72.8l-65.1,70.9l-1358.4,3.8C4915.6,5022.3,4731.7,5020.4,4680,4995.5z"/><path d="M4375.3,3129.3c-21.1-9.6-55.6-36.4-76.6-59.4c-38.3-42.2-38.3-72.8-44.1-2479.3l-3.8-2435.2l-1069.1-592c-586.3-325.7-1069.1-594-1073-597.8c-5.8-3.8,737.7-1732.1,749.1-1745.5c9.6-9.6,4851.3,854.5,4905,873.7c28.7,11.5,69,47.9,90.1,82.4c38.3,63.2,38.3,99.6,38.3,3224.6c0,3487.1,9.6,3211.2-116.9,3278.3c-38.3,19.2-632.3,107.3-1689.9,249.1c-898.6,120.7-1640.1,218.4-1651.6,216.5C4423.2,3144.6,4396.4,3137,4375.3,3129.3z"/></g></g>
</svg>