<?xml version="1.0" encoding="utf-8"?>
<!-- Svg Vector Icons : http://www.onlinewebfonts.com/icon -->
<!DOCTYPE svg PUBLIC "-//W3C//DTD SVG 1.1//EN" "http://www.w3.org/Graphics/SVG/1.1/DTD/svg11.dtd">
<svg version="1.1" xmlns="http://www.w3.org/2000/svg" xmlns:xlink="http://www.w3.org/1999/xlink" x="0px" y="0px" viewBox="0 0 1000 1000" enable-background="new 0 0 1000 1000" xml:space="preserve">
<metadata> Svg Vector Icons : http://www.onlinewebfonts.com/icon </metadata>
<g><g transform="translate(0.000000,511.000000) scale(0.100000,-0.100000)"><path d="M3598.4,4309.2v-700.8l1397.2,4.4l1395,6.6l6.6,696.4l4.4,694.2H5000H3598.4V4309.2z"/><path d="M3598.4,2734.6v-525.6l-519-267.2c-286.9-146.7-575.9-304.4-641.7-348.2c-234.3-157.7-438-431.4-527.8-705.2l-52.6-159.9v-2518.4v-2518.4l50.4-94.2c76.7-144.6,192.7-260.6,328.5-326.3l124.8-61.3H4989H7617l113.9,52.6c135.8,61.3,297.8,225.6,363.5,370.1l48.2,102.9v2463.7c0,2323.5-2.2,2472.4-39.4,2606c-70.1,243.1-181.8,431.4-376.7,626.3c-184,184-197.1,190.5-1127.8,667.9l-186.1,96.4l-6.6,532.1l-4.4,530h-350.4h-350.4v-742.4v-742.4l733.6-376.7c646-332.9,746.8-392,830-484c190.5-212.4,177.4-10.9,184-2663l4.4-2349.8H5000H2547.3l4.4,2380.5l6.6,2382.7l50.4,94.2c105.1,194.9,194.9,258.4,935.1,637.3c385.4,197.1,713.9,367.9,729.2,381.1c19.7,15.3,26.3,192.7,26.3,751.2V3258h-350.4h-350.4V2734.6z"/><path d="M3079.4,87l-181.8-6.6v-1914v-1916.2H5000h2102.3v1916.2V82.6h-135.8C6237.3,89.2,3217.4,91.4,3079.4,87z"/></g></g>
</svg>