<?xml version="1.0" encoding="UTF-8" standalone="no"?>
<svg
   xmlns:dc="http://purl.org/dc/elements/1.1/"
   xmlns:cc="http://creativecommons.org/ns#"
   xmlns:rdf="http://www.w3.org/1999/02/22-rdf-syntax-ns#"
   xmlns:svg="http://www.w3.org/2000/svg"
   xmlns="http://www.w3.org/2000/svg"
   xmlns:sodipodi="http://sodipodi.sourceforge.net/DTD/sodipodi-0.dtd"
   xmlns:inkscape="http://www.inkscape.org/namespaces/inkscape"
   inkscape:version="1.0 (4035a4fb49, 2020-05-01)"
   sodipodi:docname="pill.svg"
   id="svg12"
   xml:space="preserve"
   enable-background="new 0 0 1000 1000"
   viewBox="0 0 1000 1000"
   y="0px"
   x="0px"
   version="1.1"><defs
   id="defs16" /><sodipodi:namedview
   inkscape:current-layer="svg12"
   inkscape:window-maximized="1"
   inkscape:window-y="-9"
   inkscape:window-x="-9"
   inkscape:cy="590.65526"
   inkscape:cx="304.11394"
   inkscape:zoom="0.415"
   showgrid="false"
   id="namedview14"
   inkscape:window-height="1001"
   inkscape:window-width="1920"
   inkscape:pageshadow="2"
   inkscape:pageopacity="0"
   guidetolerance="10"
   gridtolerance="10"
   objecttolerance="10"
   borderopacity="1"
   bordercolor="#666666"
   pagecolor="#ffffff" />
<metadata
   id="metadata2"> Svg Vector Icons : http://www.onlinewebfonts.com/icon <rdf:RDF><cc:Work
     rdf:about=""><dc:format>image/svg+xml</dc:format><dc:type
       rdf:resource="http://purl.org/dc/dcmitype/StillImage" /></cc:Work></rdf:RDF></metadata>
<g
   transform="rotate(44.492003,499.99999,499.99788)"
   id="g10"><g
     id="g8"
     transform="matrix(0.1,0,0,-0.1,0,511)"><path
       id="path4"
       d="M 4372.9,5017.4 C 3262.8,4867.3 2282.3,4385 1506.6,3609.3 774,2876.7 298.6,1959.9 121.1,929.4 82.5,711 93.8,645.1 180.3,585.9 c 45.5,-34.1 484.5,-36.4 4820.5,-36.4 4722.7,0 4770.4,0 4827.3,45.5 29.6,25 63.7,70.5 70.5,100.1 6.8,31.8 -11.4,193.4 -45.5,359.4 -377.6,1945 -1876.8,3473.7 -3819.5,3896.9 -470.9,100.1 -1189.8,129.7 -1660.7,66 z" /><path
       id="path6"
       d="M 209.9,-346.8 C 98.4,-394.6 80.2,-465.1 121.1,-694.9 c 84.2,-500.5 209.3,-884.9 432.2,-1346.7 257.1,-532.3 532.3,-916.8 973.6,-1355.8 1007.9,-1003.2 2391,-1519.6 3803.7,-1421.8 2102,147.9 3846.8,1567.4 4433.7,3605.7 91,318.5 154.7,698.4 125.1,771.2 -50,134.2 250.2,127.4 -4895.6,127.4 -3851.2,-2.3 -4729.3,-6.9 -4783.9,-31.9 z" /></g></g>
</svg>
