<?xml version="1.0" encoding="utf-8"?>
<!-- Svg Vector Icons : http://www.onlinewebfonts.com/icon -->
<!DOCTYPE svg PUBLIC "-//W3C//DTD SVG 1.1//EN" "http://www.w3.org/Graphics/SVG/1.1/DTD/svg11.dtd">
<svg version="1.1" xmlns="http://www.w3.org/2000/svg" xmlns:xlink="http://www.w3.org/1999/xlink" x="0px" y="0px" viewBox="0 0 1000 1000" enable-background="new 0 0 1000 1000" xml:space="preserve">
<metadata> Svg Vector Icons : http://www.onlinewebfonts.com/icon </metadata>
<g><g><path d="M555.5,76.2c2.2-5.2,3.6-10.7,3.6-16.6c0-27.4-26.1-49.6-58.2-49.6c-32.2,0-58.2,22.2-58.2,49.6c0,5.7,1.3,11,3.4,16.1c-75.8,24.2-131.2,97.9-131.2,185v535.9c0,106.6,83,193.4,185.1,193.4c102.1,0,185.1-86.8,185.1-193.4V260.7C685.1,174.2,630.5,100.9,555.5,76.2z M630.9,796.6c0,76.8-58.7,139.2-130.9,139.2c-72.2,0-130.9-62.4-130.9-139.2V260.7c0-76.8,58.7-139.2,130.9-139.2c72.2,0,130.9,62.4,130.9,139.2V796.6z"/><path d="M500,165.8c-44.2,0-80,37.2-80,83.2v559.2c0,45.9,35.8,83.2,80,83.2c44.2,0,80-37.2,80-83.2V249C580.1,203.1,544.2,165.8,500,165.8z"/></g><g></g><g></g><g></g><g></g><g></g><g></g><g></g><g></g><g></g><g></g><g></g><g></g><g></g><g></g><g></g></g>
</svg>