<?xml version="1.0" encoding="UTF-8" standalone="no"?>
<svg
   xmlns:dc="http://purl.org/dc/elements/1.1/"
   xmlns:cc="http://creativecommons.org/ns#"
   xmlns:rdf="http://www.w3.org/1999/02/22-rdf-syntax-ns#"
   xmlns:svg="http://www.w3.org/2000/svg"
   xmlns="http://www.w3.org/2000/svg"
   xmlns:sodipodi="http://sodipodi.sourceforge.net/DTD/sodipodi-0.dtd"
   xmlns:inkscape="http://www.inkscape.org/namespaces/inkscape"
   inkscape:version="1.0 (4035a4fb49, 2020-05-01)"
   sodipodi:docname="syrup.svg"
   id="svg12"
   xml:space="preserve"
   enable-background="new 0 0 1000 1000"
   viewBox="0 0 1000 1000"
   y="0px"
   x="0px"
   version="1.1"><defs
   id="defs16" /><sodipodi:namedview
   inkscape:current-layer="svg12"
   inkscape:window-maximized="1"
   inkscape:window-y="-9"
   inkscape:window-x="-9"
   inkscape:cy="548.19277"
   inkscape:cx="500"
   inkscape:zoom="0.83"
   showgrid="false"
   id="namedview14"
   inkscape:window-height="1001"
   inkscape:window-width="1920"
   inkscape:pageshadow="2"
   inkscape:pageopacity="0"
   guidetolerance="10"
   gridtolerance="10"
   objecttolerance="10"
   borderopacity="1"
   bordercolor="#666666"
   pagecolor="#ffffff" />
<metadata
   id="metadata2"> Svg Vector Icons : http://www.onlinewebfonts.com/icon <rdf:RDF><cc:Work
     rdf:about=""><dc:format>image/svg+xml</dc:format><dc:type
       rdf:resource="http://purl.org/dc/dcmitype/StillImage" /><dc:title></dc:title></cc:Work></rdf:RDF></metadata>
<g
   id="g10"><g
     id="g8"
     transform="translate(0.000000,512.000000) scale(0.100000,-0.100000)"><path
       id="path4"
       d="M3284.9,4975.8c-82.6-50-136.4-115.3-165.2-203.7c-15.4-44.2-23.1-280.6-23.1-743.6v-680.2h1863.9h1863.9v668.7c0,405.4-7.7,695.6-21.1,739.8c-23.1,82.6-113.4,194.1-192.2,236.4c-46.1,23.1-294,26.9-1654.5,26.9H3356L3284.9,4975.8z" /><path
       sodipodi:nodetypes="cccccccsccsccccccc"
       id="path6"
       d="m 3115.8,2108.8 -121.1,-34.6 c -426.6,-124.9 -782.1,-507.3 -899.3,-970.4 -36.5,-146 -36.5,-213.3 -32.7,-2484.6 l 5.8,-2332.8 53.8,-144.1 c 169.1,-459.3 518.8,-778.2 976.2,-891.6 111.4,-26.9 326.7,-30.7 1900.4,-30.7 1983.1,0 1890.8,-5.8 2181,136.4 361.3,174.9 620.7,495.8 720.6,889.7 36.5,147.9 38.4,213.3 38.4,2432.7 0,2206 -1.9,2284.7 -38.4,2428.9 -117.2,461.2 -472.7,841.7 -897.4,966.6 l -121.1,34.6 c 0,272.2333 0,544.4667 0,816.7 H 4998.9 3115.8 c 0,-272.2667 0,-544.5333 0,-816.8 z" /></g></g>
</svg>
