<?xml version="1.0" encoding="utf-8"?>
<!-- Svg Vector Icons : http://www.onlinewebfonts.com/icon -->
<!DOCTYPE svg PUBLIC "-//W3C//DTD SVG 1.1//EN" "http://www.w3.org/Graphics/SVG/1.1/DTD/svg11.dtd">
<svg version="1.1" xmlns="http://www.w3.org/2000/svg" xmlns:xlink="http://www.w3.org/1999/xlink" x="0px" y="0px" viewBox="0 0 1000 1000" enable-background="new 0 0 1000 1000" xml:space="preserve">
<metadata> Svg Vector Icons : http://www.onlinewebfonts.com/icon </metadata>
<g><g transform="translate(0.000000,512.000000) scale(0.100000,-0.100000)"><path d="M6434.4,4994.5c-344.8-47.9-750.8-178.1-1032.4-331.3c-383.1-210.7-593.8-392.6-1503.5-1304.3l-632.1-634l2170-2168.1l2168.1-2170l614.8,612.9c973,969.2,1143.4,1170.2,1358,1599.3c729.7,1457.5,182,3233-1244.9,4031.7C7763.6,4948.5,7074.1,5080.7,6434.4,4994.5z"/><path d="M1607.8,1064.3C1134.7,587.3,784.2,219.6,711.5,120C391.6-314.8,194.3-799.3,125.4-1331.8C-54.7-2707,738.3-4053.4,2029.2-4562.9c1009.4-398.4,2118.3-243.2,2999.4,417.5c84.3,63.2,501.8,463.5,928.9,888.7l775.7,771.9L4568.9-320.5C3379.5,868.9,2400.8,1843.8,2393.1,1843.8C2387.4,1843.8,2034.9,1493.3,1607.8,1064.3z"/></g></g>
</svg>