<?xml version="1.0" encoding="utf-8"?>
<!-- Svg Vector Icons : http://www.onlinewebfonts.com/icon -->
<!DOCTYPE svg PUBLIC "-//W3C//DTD SVG 1.1//EN" "http://www.w3.org/Graphics/SVG/1.1/DTD/svg11.dtd">
<svg version="1.1" xmlns="http://www.w3.org/2000/svg" xmlns:xlink="http://www.w3.org/1999/xlink" x="0px" y="0px" viewBox="0 0 1000 1000" enable-background="new 0 0 1000 1000" xml:space="preserve">
<metadata> Svg Vector Icons : http://www.onlinewebfonts.com/icon </metadata>
<g><g transform="translate(0.000000,511.000000) scale(0.100000,-0.100000)"><path d="M2983.9,1176.8c171-2110.6,313.9-3881.7,319-3937.9l7.7-102.1l500.2-7.7l500.2-5.1l15.3-135.3c7.7-71.4,45.9-502.8,84.2-957l71.5-821.8h525.7h525.7l71.5,824.3c38.3,451.7,76.6,883,84.2,957l15.3,132.7h495.1c372.6,0,497.7,7.6,502.7,33.2c12.8,38.3,630.3,7684.3,627.8,7783.9v68.9H5000H2669.9L2983.9,1176.8z M4119.5,1130.8c107.2-1523.6,191.4-2771.6,186.3-2776.7s-94.4-15.3-199.1-23l-194-15.3l-12.8,86.8c-7.7,48.5-94.4,1258.2-194,2689.9c-97,1431.7-183.8,2646.5-191.4,2697.5c-15.3,112.3,2.6,119.9,242.5,114.8l165.9-5.1L4119.5,1130.8z"/></g></g>
</svg>