<?xml version="1.0" encoding="UTF-8" standalone="no"?>
<svg
   xmlns:dc="http://purl.org/dc/elements/1.1/"
   xmlns:cc="http://creativecommons.org/ns#"
   xmlns:rdf="http://www.w3.org/1999/02/22-rdf-syntax-ns#"
   xmlns:svg="http://www.w3.org/2000/svg"
   xmlns="http://www.w3.org/2000/svg"
   xmlns:sodipodi="http://sodipodi.sourceforge.net/DTD/sodipodi-0.dtd"
   xmlns:inkscape="http://www.inkscape.org/namespaces/inkscape"
   width="210mm"
   height="297mm"
   viewBox="0 0 210 297"
   version="1.1"
   id="svg8"
   inkscape:version="1.0.2 (e86c8708, 2021-01-15)"
   sodipodi:docname="no_chart_data.svg">
  <defs
     id="defs2" />
  <sodipodi:namedview
     id="base"
     pagecolor="#ffffff"
     bordercolor="#666666"
     borderopacity="1.0"
     inkscape:pageopacity="0.0"
     inkscape:pageshadow="2"
     inkscape:zoom="0.35"
     inkscape:cx="400"
     inkscape:cy="560"
     inkscape:document-units="mm"
     inkscape:current-layer="layer1"
     inkscape:document-rotation="0"
     showgrid="false"
     inkscape:window-width="1252"
     inkscape:window-height="803"
     inkscape:window-x="0"
     inkscape:window-y="23"
     inkscape:window-maximized="0" />
  <metadata
     id="metadata5">
    <rdf:RDF>
      <cc:Work
         rdf:about="">
        <dc:format>image/svg+xml</dc:format>
        <dc:type
           rdf:resource="http://purl.org/dc/dcmitype/StillImage" />
        <dc:title></dc:title>
      </cc:Work>
    </rdf:RDF>
  </metadata>
  <g
     inkscape:label="Layer 1"
     inkscape:groupmode="layer"
     id="layer1">
    <g
       fill-rule="evenodd"
       id="g841"
       transform="matrix(0.35277766,0,0,0.35277766,17.790198,48.03165)"
       style="fill:#e7220d;fill-opacity:1">
      <path
         d="m 248.95312,61.273438 c -5.36718,-1.238282 -10.72265,2.101562 -11.96484,7.46875 -1.24219,5.367187 2.10547,10.726562 7.47266,11.96875 24.8125,5.734374 47.49218,18.332031 65.58203,36.421872 53.18359,53.1836 53.18359,139.72656 0,192.91016 -53.1836,53.1875 -139.72656,53.1875 -192.91016,0 -53.187498,-53.1836 -53.187498,-139.72656 0,-192.91016 15.26953,-15.26953 33.33985,-26.406248 53.71094,-33.109372 5.23047,-1.71875 8.07812,-7.355469 6.35937,-12.589844 -1.72265,-5.234375 -7.36328,-8.082032 -12.59375,-6.359375 -23.36718,7.683593 -44.08593,20.453125 -61.58203,37.953121 -60.96484,60.96485 -60.96484,160.16016 0,221.125 30.48047,30.48047 70.51953,45.72266 110.5625,45.72266 40.03907,-0.004 80.07813,-15.24219 110.5625,-45.72266 60.96094,-60.96484 60.96094,-160.16015 0,-221.125 C 303.41406,82.292969 277.41406,67.851562 248.95312,61.273438 Z m 0,0"
         id="path833"
         style="fill:#e7220d;fill-opacity:1" />
      <path
         d="M 498.41406,432.70703 393.88281,328.17578 C 447.48437,244.12109 435.74609,133.69141 364.61719,62.558594 324.27734,22.21875 270.64062,0 213.58984,0 156.53516,0 102.89844,22.21875 62.558594,62.558594 22.214844,102.89844 0,156.53516 0,213.58984 c 0,57.05078 22.214844,110.6875 62.558594,151.02735 40.339846,40.33984 93.972656,62.55468 151.023436,62.55468 40.94531,0 80.38672,-11.48437 114.59375,-33.28906 l 104.53125,104.53125 c 8.74609,8.75 20.41406,13.56641 32.85547,13.56641 12.4375,0 24.10547,-4.81641 32.85547,-13.56641 18.10937,-18.11719 18.10937,-47.58984 -0.004,-65.70703 z m -14.10547,51.60156 c -4.98047,4.97657 -11.63672,7.71875 -18.74609,7.71875 -7.11328,0 -13.76953,-2.74218 -18.75,-7.71875 L 336.50781,374.00391 c -1.92969,-1.9336 -4.48437,-2.92188 -7.05469,-2.92188 -1.97656,0 -3.96093,0.58203 -5.68359,1.77734 -32.41016,22.48047 -70.51562,34.36329 -110.1875,34.36329 -51.72266,0 -100.34766,-20.14063 -136.917968,-56.71094 -75.5,-75.5 -75.5,-198.34766 0,-273.847658 36.574218,-36.574218 85.199218,-56.714843 136.925778,-56.714843 51.72266,0 100.34766,20.140625 136.92188,56.714843 66.28125,66.285158 75.68359,170.207028 22.34765,247.105468 -2.75,3.96485 -2.26953,9.32422 1.14454,12.73828 L 484.30859,446.8125 c 10.33594,10.33594 10.33594,27.15625 0,37.49609 z m 0,0"
         id="path835"
         style="fill:#e7220d;fill-opacity:1" />
      <path
         d="m 273.80469,153.37109 c -3.89453,-3.89453 -10.20703,-3.89453 -14.10547,0 l -46.10938,46.10938 -46.11328,-46.10938 c -3.89453,-3.89453 -10.21094,-3.89453 -14.10547,0 -3.89453,3.89453 -3.89453,10.21094 0,14.10547 l 46.10938,46.11328 -46.10938,46.10938 c -3.89453,3.89453 -3.89453,10.21094 0,14.10547 1.94532,1.94922 4.5,2.92187 7.05078,2.92187 2.55469,0 5.10547,-0.97265 7.05469,-2.92187 l 46.10938,-46.10938 46.10937,46.10938 c 1.94922,1.94922 4.50391,2.92187 7.05469,2.92187 2.55469,0 5.10547,-0.97265 7.05469,-2.92187 3.89453,-3.89453 3.89453,-10.21094 0,-14.10547 l -46.11328,-46.10938 46.11328,-46.11328 c 3.89453,-3.89453 3.89453,-10.21094 0,-14.10547 z m 0,0"
         id="path837"
         style="fill:#e7220d;fill-opacity:1" />
      <path
         d="m 206.97656,77.328125 c 5.49219,0 9.97266,-4.480469 9.97266,-9.976563 0,-5.492187 -4.48047,-9.972656 -9.97266,-9.972656 -5.49609,0 -9.97656,4.480469 -9.97656,9.972656 0,5.496094 4.48047,9.976563 9.97656,9.976563 z m 0,0"
         id="path839"
         style="fill:#e7220d;fill-opacity:1" />
    </g>
  </g>
</svg>
